<svg width="37" height="36" viewBox="0 0 37 36" fill="none" xmlns="http://www.w3.org/2000/svg">
<path d="M35.5322 28.8138C35.5322 29.4288 35.3955 30.0609 35.1051 30.6759C34.8147 31.2909 34.4388 31.8717 33.9434 32.4184C33.1063 33.3409 32.1838 34.0072 31.1417 34.4342C30.1167 34.8613 29.0063 35.0834 27.8105 35.0834C26.068 35.0834 24.2059 34.6734 22.2413 33.8363C20.2767 32.9992 18.3122 31.8717 16.3647 30.4538C14.4001 29.0188 12.538 27.4301 10.7613 25.6705C9.00175 23.8938 7.413 22.0317 5.99508 20.0842C4.59425 18.1367 3.46675 16.1892 2.64675 14.2588C1.82675 12.3113 1.41675 10.4492 1.41675 8.67258C1.41675 7.51091 1.62175 6.4005 2.03175 5.3755C2.44175 4.33342 3.09091 3.37675 3.99633 2.52258C5.08966 1.44633 6.2855 0.916748 7.54966 0.916748C8.028 0.916748 8.50633 1.01925 8.93341 1.22425C9.37758 1.42925 9.7705 1.73675 10.078 2.18091L14.0413 7.76717C14.3488 8.19425 14.5709 8.58716 14.7247 8.963C14.8784 9.32175 14.9638 9.6805 14.9638 10.0051C14.9638 10.4151 14.8442 10.8251 14.6051 11.218C14.383 11.6109 14.0584 12.0209 13.6484 12.4309L12.3501 13.7805C12.1622 13.9684 12.0767 14.1905 12.0767 14.4638C12.0767 14.6005 12.0938 14.7201 12.128 14.8567C12.1792 14.9934 12.2305 15.0959 12.2647 15.1984C12.5722 15.7622 13.1017 16.4967 13.8534 17.3851C14.6222 18.2734 15.4422 19.1788 16.3305 20.0842C17.253 20.9897 18.1413 21.8267 19.0467 22.5955C19.9351 23.3472 20.6697 23.8597 21.2505 24.1672C21.3359 24.2013 21.4384 24.2526 21.558 24.3038C21.6947 24.3551 21.8313 24.3722 21.9851 24.3722C22.2755 24.3722 22.4976 24.2697 22.6855 24.0817L23.9838 22.8005C24.4109 22.3734 24.8209 22.0488 25.2138 21.8438C25.6067 21.6047 25.9997 21.4851 26.4267 21.4851C26.7513 21.4851 27.093 21.5534 27.4688 21.7072C27.8447 21.8609 28.2376 22.083 28.6647 22.3734L34.3192 26.388C34.7634 26.6955 35.0709 27.0542 35.2588 27.4813C35.4297 27.9084 35.5322 28.3355 35.5322 28.8138Z" fill="#357EDF" stroke="#DEEBFF" stroke-width="1.56" stroke-miterlimit="10"/>
</svg>
